<svg xmlns="http://www.w3.org/2000/svg" width="16" height="16" viewBox="0 0 16 16">
    <path fill="#5B5B5B" fill-rule="evenodd" d="M10.5 5a5.5 5.5 0 1 0 0 11 5.5 5.5 0 1 0 0-11m-9.25.5A4.255 4.255 0 0 1 5.5 1.25c1.845 0 3.404 1.19 3.99 2.837.33-.052.666-.087 1.01-.087.098 0 .194.01.291.015a5.497 5.497 0 1 0-6.776 6.776C4.01 10.694 4 10.598 4 10.5c0-.344.035-.68.087-1.01C2.44 8.904 1.25 7.346 1.25 5.5m2.932 3.499A3.747 3.747 0 0 1 1.75 5.5 3.754 3.754 0 0 1 5.5 1.75a3.745 3.745 0 0 1 3.498 2.432 6.514 6.514 0 0 0-4.816 4.817"/>
</svg>
