<svg xmlns="http://www.w3.org/2000/svg" width="24" height="24" viewBox="0 0 24 24">
    <path fill="#3D3D3D" fill-rule="evenodd" d="M19.5 5.955L12 11.84 4.5 5.955c0-.527.42-.955.937-.955h13.125c.519 0 .938.428.938.955zm-6.818 9.005c.021-.014.047-.017.067-.033L22 7.854v9.873C22 18.43 21.441 19 20.75 19H3.25C2.559 19 2 18.43 2 17.727v-10l9.241 7.194c.022.018.048.02.07.035.072.05.148.08.228.113.074.031.144.063.221.08.076.014.151.01.229.011.083.002.163.004.244-.012.073-.014.14-.045.21-.072.083-.033.163-.065.239-.116z"/>
</svg>
