<svg xmlns="http://www.w3.org/2000/svg" width="24" height="24" viewBox="0 0 24 24">
    <path fill="#3D3D3D" fill-rule="evenodd" d="M17.137 15.471c-.387 0-1.686 1.558-2.036 1.73-.351.173-2.538.112-4.976-2.326-2.437-2.437-3.271-5.244-3.271-5.684 0-.441 2.034-1.802 2.091-2.121C9.001 6.75 6.264 2 5.82 2 5.375 2 2 6.103 2 6.445c0 .34.309 4.739 5.875 10.305 5.567 5.567 9.234 5.247 9.679 5.249.446.001 4.444-2.955 4.444-3.333 0-.377-4.474-3.195-4.861-3.195M14.971 9.03a3.741 3.741 0 0 1 1.031 3.364l1.741-.246c.134-1.552-.371-3.148-1.556-4.333-1.186-1.188-2.782-1.69-4.333-1.558l-.247 1.742a3.743 3.743 0 0 1 3.364 1.031m2.984-2.983a7.94 7.94 0 0 1 2.329 5.741L22 11.545a9.648 9.648 0 0 0-2.829-6.714A9.654 9.654 0 0 0 12.454 2l-.243 1.717a7.947 7.947 0 0 1 5.744 2.33"/>
</svg>
